<?xml version="1.0" encoding="UTF-8" standalone="no"?>
<!-- Created by Keith Packard; Rotation/recolor by Daniel Foerster -->

<svg
   xmlns:dc="http://purl.org/dc/elements/1.1/"
   xmlns:cc="http://creativecommons.org/ns#"
   xmlns:rdf="http://www.w3.org/1999/02/22-rdf-syntax-ns#"
   xmlns:svg="http://www.w3.org/2000/svg"
   xmlns="http://www.w3.org/2000/svg"
   xmlns:sodipodi="http://sodipodi.sourceforge.net/DTD/sodipodi-0.dtd"
   xmlns:inkscape="http://www.inkscape.org/namespaces/inkscape"
   version="1.0"
   x="0"
   y="0"
   width="140"
   height="140"
   id="glider"
   inkscape:version="0.48.4 r9939"
   sodipodi:docname="glider.svg">
  <metadata
     id="metadata31">
    <rdf:RDF>
      <cc:Work
         rdf:about="">
        <dc:format>image/svg+xml</dc:format>
        <dc:type
           rdf:resource="http://purl.org/dc/dcmitype/StillImage" />
      </cc:Work>
    </rdf:RDF>
  </metadata>
  <defs
     id="defs29" />
  <sodipodi:namedview
     pagecolor="#ffffff"
     bordercolor="#666666"
     borderopacity="1"
     objecttolerance="10"
     gridtolerance="10"
     guidetolerance="10"
     inkscape:pageopacity="0"
     inkscape:pageshadow="2"
     inkscape:window-width="1049"
     inkscape:window-height="607"
     id="namedview27"
     showgrid="false"
     inkscape:zoom="1.6857143"
     inkscape:cx="-24.915254"
     inkscape:cy="70"
     inkscape:window-x="0"
     inkscape:window-y="0"
     inkscape:window-maximized="0"
     inkscape:current-layer="g3" />
  <g
     transform="translate(10,10)"
     id="g3">&gt;
    <g
   id="g3798"
   transform="matrix(0,1,-1,0,120,0)">
  <path
     inkscape:connector-curvature="0"
     id="path7"
     d="m 0,0 120,0 0,120 -120,0 z"
     style="fill:none;stroke:#000000;stroke-width:2;stroke-linecap:butt;stroke-linejoin:round" />
  <path
     inkscape:connector-curvature="0"
     id="path9"
     d="m 0,40 120,0"
     style="fill:none;stroke:#000000;stroke-width:2;stroke-linecap:butt;stroke-linejoin:round" />
  <path
     inkscape:connector-curvature="0"
     id="path11"
     d="m 0,80 120,0"
     style="fill:none;stroke:#000000;stroke-width:2;stroke-linecap:butt;stroke-linejoin:round" />
  <path
     inkscape:connector-curvature="0"
     id="path13"
     d="m 40,0 0,120"
     style="fill:none;stroke:#000000;stroke-width:2;stroke-linecap:butt;stroke-linejoin:round" />
  <path
     inkscape:connector-curvature="0"
     id="path15"
     d="m 80,0 0,120"
     style="fill:none;stroke:#000000;stroke-width:2;stroke-linecap:butt;stroke-linejoin:round" />
  <ellipse
     transform="scale(20,20)"
     sodipodi:ry="0.69999999"
     sodipodi:rx="0.69999999"
     sodipodi:cy="1"
     sodipodi:cx="3"
     id="C1"
     ry="0.69999999"
     rx="0.69999999"
     cy="1"
     cx="3"
     d="M 3.7,1 C 3.7,1.3865993 3.3865993,1.7 3,1.7 2.6134007,1.7 2.3,1.3865993 2.3,1 2.3,0.61340068 2.6134007,0.30000001 3,0.30000001 3.3865993,0.30000001 3.7,0.61340068 3.7,1 z"
     style="fill:#400000;fill-opacity:1" />
  <ellipse
     transform="scale(20,20)"
     sodipodi:ry="0.69999999"
     sodipodi:rx="0.69999999"
     sodipodi:cy="3"
     sodipodi:cx="5"
     id="ellipse19"
     ry="0.69999999"
     rx="0.69999999"
     cy="3"
     cx="5"
     d="M 5.7,3 C 5.7,3.3865993 5.3865993,3.7 5,3.7 4.6134007,3.7 4.3,3.3865993 4.3,3 4.3,2.6134007 4.6134007,2.3 5,2.3 5.3865993,2.3 5.7,2.6134007 5.7,3 z"
     style="fill:#000000;fill-opacity:1" />
  <ellipse
     transform="scale(20,20)"
     sodipodi:ry="0.69999999"
     sodipodi:rx="0.69999999"
     sodipodi:cy="5"
     sodipodi:cx="1"
     id="ellipse21"
     ry="0.69999999"
     rx="0.69999999"
     cy="5"
     cx="1"
     d="M 1.7,5 C 1.7,5.3865993 1.3865993,5.7 1,5.7 0.61340068,5.7 0.30000001,5.3865993 0.30000001,5 0.30000001,4.6134007 0.61340068,4.3 1,4.3 1.3865993,4.3 1.7,4.6134007 1.7,5 z"
     style="fill:#000000;fill-opacity:1" />
  <ellipse
     transform="scale(20,20)"
     sodipodi:ry="0.69999999"
     sodipodi:rx="0.69999999"
     sodipodi:cy="5"
     sodipodi:cx="3"
     id="ellipse23"
     ry="0.69999999"
     rx="0.69999999"
     cy="5"
     cx="3"
     d="M 3.7,5 C 3.7,5.3865993 3.3865993,5.7 3,5.7 2.6134007,5.7 2.3,5.3865993 2.3,5 2.3,4.6134007 2.6134007,4.3 3,4.3 3.3865993,4.3 3.7,4.6134007 3.7,5 z"
     style="fill:#004000;fill-opacity:1" />
  <ellipse
     transform="scale(20,20)"
     sodipodi:ry="0.69999999"
     sodipodi:rx="0.69999999"
     sodipodi:cy="5"
     sodipodi:cx="5"
     id="ellipse25"
     ry="0.69999999"
     rx="0.69999999"
     cy="5"
     cx="5"
     d="M 5.7,5 C 5.7,5.3865993 5.3865993,5.7 5,5.7 4.6134007,5.7 4.3,5.3865993 4.3,5 4.3,4.6134007 4.6134007,4.3 5,4.3 5.3865993,4.3 5.7,4.6134007 5.7,5 z"
     style="fill:#004000;fill-opacity:1" />
</g>
</g>
</svg>
